<?xml version="1.0" encoding="utf-8"?>
<!-- Generator: Adobe Illustrator 18.0.0, SVG Export Plug-In . SVG Version: 6.00 Build 0)  -->
<!DOCTYPE svg PUBLIC "-//W3C//DTD SVG 1.1//EN" "http://www.w3.org/Graphics/SVG/1.1/DTD/svg11.dtd">
<svg version="1.1" id="Layer_1" xmlns="http://www.w3.org/2000/svg" xmlns:xlink="http://www.w3.org/1999/xlink" x="0px" y="0px"
	 viewBox="0 621.2 612 170.8" enable-background="new 0 621.2 612 170.8" xml:space="preserve">
<g>
	<path fill="#DA1F27" d="M135,668.5v8.7c0,5.5-8.7,5.7-8.7,0c0,0,0-25.7,0-25.9c0-8.9-13.8-8.9-13.8,0c0,0,0,17,0,17.2
		c0,5.5-8.7,5.7-8.7,0c0,0,0-28.8,0-29c0-8.9-13.8-8.9-13.8,0v10.8c0,5.5-8.7,5.7-8.7,0v-22.5c0-8.5-13.8-8.9-13.8,0
		c0,0,0,22.3,0,22.5c0,5.7-8.7,5.7-8.7,0v-10.7c0-8.7-13.8-8.9-13.8,0c0,0,0,26.7,0,27c0,5.5-8.7,5.7-8.7,0c0,0,0-15,0-15.2
		c0-8.9-13.8-8.9-13.8,0c0,0,0,54.5,0,54.7c0,5.5-8.7,5.7-8.7,0v-37.5c0-8.5-13.8-8.9-13.8,0c0,78.4,0,78.4,0,77.2
		c0,8.9,13.8,8.9,13.8,0c0,0,0-7.5,0-7.7c0-5.5,8.7-5.7,8.7,0v24.7c0,8.9,13.8,8.9,13.8,0v-16c0-5.5,8.7-5.7,8.7,0v27.8
		c0,8.9,13.8,8.9,13.8,0v-9.7c0-5.5,8.7-5.7,8.7,0c0,0,0,21.3,0,21.5c0,8.5,13.8,8.9,13.8,0c0,0,0-21.3,0-21.5c0-5.7,8.7-5.7,8.7,0
		c0,0,0,9.5,0,9.7c0,8.7,13.8,8.9,13.8,0v-25.7c0-5.5,8.7-5.7,8.7,0v14c0,8.9,13.8,8.9,13.8,0v-52.6c0-5.5,8.7-5.7,8.7,0v35.5
		c0,8.5,13.8,8.9,13.8,0v-77.2C148.7,659.8,135,659.5,135,668.5z"/>
	<path fill="#ED2A26" d="M74.6,791.3c-3,0-5.9-1.6-5.9-4.9c0,0,0-21.3,0-21.5c0-6.9-10.9-6.9-10.9,0v9.7c0,7.3-11.6,7.3-11.6,0
		v-27.8c0-6.7-10.9-6.9-10.9,0v16c0,7.3-11.6,7.3-11.6,0V738c0-6.9-10.9-6.9-10.9,0v7.7c0,7.1-11.6,7.5-11.6,0c0,0,0-77,0-77.2
		c0-6.9,11.6-7.3,11.6,0v37.5c0,6.9,10.9,6.9,10.9,0c0,0,0-54.5,0-54.7c0-7.1,11.6-7.3,11.6,0c0,0,0,15,0,15.2
		c0,6.9,10.9,6.9,10.9,0v-27c0-7.1,11.6-7.3,11.6,0v10.7c0,6.9,10.9,6.9,10.9,0v-22.5c0-7.1,11.6-7.1,11.6,0v22.5
		c0,6.7,10.9,6.9,10.9,0v-10.7c0-7.3,11.6-7.3,11.6,0c0,0,0,28.8,0,29c0,6.9,10.9,6.9,10.9,0v-17.2c0-7.1,11.6-7.3,11.6,0
		c0,0,0,25.7,0,25.9c0,6.9,10.9,6.9,10.9,0v-8.7c0-7.3,11.6-7.3,11.6,0v77.2c0,7.1-11.6,7.1-11.6,0c0,0,0-35.3,0-35.5
		c0-6.9-10.9-6.9-10.9,0v52.5c0,7.3-11.6,7.3-11.6,0v-14c0-6.9-10.9-6.9-10.9,0v25.7c0,7.1-11.6,7.3-11.6,0v-9.7
		c0-6.9-10.9-6.9-10.9,0c0,0,0,21.3,0,21.5C80.2,789.6,77.4,791.3,74.6,791.3z"/>
	<path fill="#DA1F27" d="M68.5,650.8c-0.6,6.3-10.9,6.1-10.9-0.6v-10.7c0-7.3-11.6-7.1-11.6,0v27c0,6.9-10.9,6.9-10.9,0v-15.3
		c0-7.3-11.6-7.1-11.6,0c0,0.2,0,54.7,0,54.7c0,6.9-10.9,6.9-10.9,0c0-0.2,0-37.5,0-37.5c0-7.3-11.6-6.9-11.6,0c0,0.2,0,77.2,0,77.2
		c0,7.5,11.6,7.1,11.6,0V738c0-6.9,10.9-6.9,10.9,0v24.7c0,7.3,11.6,7.3,11.6,0v-16c0-6.9,10.9-6.7,10.9,0v27.8
		c0,7.3,11.6,7.3,11.6,0v-9.7c0-6.9,10.9-6.9,10.9,0v21.5c0,3.4,3,5.1,5.9,4.9c2.8,0,5.7-1.6,5.7-4.9c0-0.2,0-21.5,0-21.5
		c0-6.9,10.9-6.9,10.9,0v9.7c0,7.3,11.6,7.1,11.6,0v-25.7c0-6.9,10.9-6.9,10.9,0v14c0,7.3,11.6,7.3,11.6,0c0-0.2,0-52.5,0-52.5
		c0-6.9,10.9-6.9,10.9,0c0,0.2,0,35.5,0,35.5c0,7.1,11.6,7.1,11.6,0v-44.6C114.3,698.3,84.9,678.5,68.5,650.8z"/>
	<g>
		<path fill="#C72127" d="M115.7,725.1c-40.5,0-76.2-24.9-92.2-60.2c0,16.2,0,41.1,0,41.1c0,6.9-10.9,6.9-10.9,0
			c0-0.2,0-37.5,0-37.5c0-7.3-11.6-6.9-11.6,0c0,0.2,0,77.2,0,77.2c0,7.5,11.6,7.1,11.6,0V738c0-6.9,10.9-6.9,10.9,0v24.7
			c0,7.3,11.6,7.3,11.6,0v-16c0-6.9,10.9-6.7,10.9,0v27.8c0,7.3,11.6,7.3,11.6,0v-9.7c0-6.9,10.9-6.9,10.9,0v21.5
			c0,3.4,3,5.1,5.9,4.9c2.8,0,5.7-1.6,5.7-4.9c0-0.2,0-21.5,0-21.5c0-6.9,10.9-6.9,10.9,0v9.7c0,7.3,11.6,7.1,11.6,0v-25.7
			c0-6.9,10.9-6.9,10.9,0v14c0,7.3,11.6,7.3,11.6,0v-38.3C122,725,119,725.1,115.7,725.1z"/>
		<path fill="#C72127" d="M136,723c0,10.1,0,22.7,0,22.7c0,7.1,11.6,7.1,11.6,0v-25.9C143.9,721.1,140,722.1,136,723z"/>
	</g>
	<g>
		<path fill="#AF1F24" d="M93,753.1c-40.5,0-76-24.9-92-60c0,22.7,0,52.5,0,52.5c0,7.5,11.6,7.1,11.6,0v-7.7c0-6.9,10.9-6.9,10.9,0
			v24.7c0,7.3,11.6,7.3,11.6,0v-16c0-6.9,10.9-6.7,10.9,0v27.8c0,7.3,11.6,7.3,11.6,0v-9.7c0-6.9,10.9-6.9,10.9,0v21.5
			c0,3.4,3,5.1,5.9,4.9c2.8,0,5.7-1.6,5.7-4.9c0-0.2,0-21.5,0-21.5c0-6.9,10.9-6.9,10.9,0v9.7c0,7.3,11.6,7.1,11.6,0v-21.7
			C99.5,753,96.3,753.1,93,753.1z"/>
		<path fill="#AF1F24" d="M136,743.3c0,1.6,0,2.4,0,2.4c0,7.1,11.6,7.1,11.6,0v-8.9C143.9,739.1,140,741.5,136,743.3z"/>
		<path fill="#AF1F24" d="M113.5,751c0,3.9,0,12,0,12c0,7.3,11.6,7.3,11.6,0v-15.2C121.4,749.1,117.5,750.1,113.5,751z"/>
	</g>
	<path fill="#FFFFFF" d="M66.1,677l37.7,21.7c6.5,3.6,6.5,13,0,16.6l-37.7,21.9c-6.5,3.6-14.4-1-14.4-8.3v-43.6
		C51.7,678,59.6,673.3,66.1,677z"/>
</g>
<path fill="#FFFFFF" d="M188.3,746.5v-76h48.6l0.2,12.8h-34.9V701h29.6v11.8h-29.6v21.1h36.5l-0.2,12.6L188.3,746.5L188.3,746.5z"/>
<path fill="#FFFFFF" d="M246.2,715.8c0-10.1,1.8-18,5.7-23.3s9.7-8.1,17.6-8.1c3,0,6.1,0.6,8.7,1.6c2.8,1,5.1,2.6,7.3,4.7l0.2-0.2
	l-0.2-8.1v-15.2l12.8-0.6v80h-10.1l-1.4-5.7h-0.2c-1.8,2.2-4.3,4.1-6.9,5.3c-2.8,1.2-6.1,1.8-10.1,1.8c-8.1,0-14-2.6-17.8-7.7
	C248.2,735,246.2,726.8,246.2,715.8z M259.6,716.5c0,3.9,0.2,7.1,0.6,9.7c0.4,2.6,1.2,4.9,2.2,6.5c1,1.6,2.4,2.8,4.3,3.4
	c1.8,0.8,3.9,1,6.5,1c3.4,0,6.3-0.6,8.1-2c2-1.2,3.4-2.6,4.3-4.1v-29.2c-1.2-1.6-2.8-3-4.9-4.1c-2.1-1.1-4.7-1.6-7.3-1.6
	c-2.4,0-4.7,0.4-6.3,1c-1.8,0.8-3.2,1.8-4.3,3.4c-1.1,1.6-1.8,3.6-2.4,6.3C260,709.5,259.6,712.6,259.6,716.5z"/>
<path fill="#FFFFFF" d="M312.5,725.6v-40.1h12.8v39.7c0,7.1,4.1,10.5,12,10.5s12-3.4,11.8-10.5v-39.7h12.8v40.1
	c0,7.1-2,12.6-6.1,16.4c-4.1,3.9-10.3,5.7-18.6,5.7c-8.5,0-14.6-1.8-18.6-5.7C314.5,738.1,312.5,732.6,312.5,725.6z"/>
<path fill="#ED2A26" d="M370.4,695.5v-9.9h8.1l2-14.4l10.3-1v15.1h14.4v9.9h-14.4v34c0,2.6,0.6,4.7,2,5.9s3.4,1.8,5.9,1.8
	c0.8,0,1.8,0,2.6-0.2c1-0.2,1.6-0.2,2.2-0.4l0.8,9.5c-1,0.4-2.4,0.8-4.1,1.2c-1.8,0.2-3.4,0.4-5.5,0.4c-5.7,0-9.9-1.6-12.8-4.7
	c-2.8-3-4.3-7.5-4.3-13.2v-34.2h-7.2V695.5z"/>
<path fill="#ED2A26" d="M414.4,725.6v-40.1h12.8v39.7c0,7.1,4.1,10.5,12,10.5s12-3.4,11.8-10.5v-39.7h12.8v40.1
	c0,7.1-2,12.6-6.1,16.4c-4.1,3.9-10.3,5.7-18.6,5.7c-8.5,0-14.6-1.8-18.6-5.7C416.4,738.1,414.4,732.6,414.4,725.6z"/>
<path fill="#ED2A26" d="M472.2,695.5v-9.9h8.1l2-14.4l10.3-1v15.1H507v9.9h-14.4v34c0,2.6,0.6,4.7,2,5.9s3.4,1.8,5.9,1.8
	c0.8,0,1.8,0,2.6-0.2c1-0.2,1.6-0.2,2.2-0.4l0.8,9.5c-1,0.4-2.4,0.8-4.1,1.2c-1.8,0.2-3.4,0.4-5.5,0.4c-5.7,0-9.9-1.6-12.8-4.7
	c-2.8-3-4.3-7.5-4.3-13.2v-34.2h-7.2V695.5z"/>
<path fill="#ED2A26" d="M514.3,702.5c0-5.3,1.8-9.7,5.7-13c3.6-3.2,9.3-5.1,16.8-5.1c6.1,0,11.8,1.2,16.8,3.4l-1.2,10.7
	c-2.6-1-5.3-1.8-8.1-2.4c-2.8-0.4-5.5-0.8-7.7-0.8c-3,0-5.5,0.6-7.1,1.6c-1.8,1.2-2.6,2.8-2.6,4.9c0,1.8,0.8,3.2,2.2,4.3
	c1.4,1,3.2,1.8,5.5,2.6c2.2,0.8,4.5,1.4,7.1,2.2c2.6,0.8,4.9,1.8,7.1,3.2c2.2,1.4,3.9,3,5.5,5.3c1.6,2.2,2.2,5.1,2.2,8.5
	c0,3-0.4,5.7-1.2,8.1c-0.8,2.4-2.2,4.5-4.1,6.3c-1.8,1.8-4.1,3-6.9,4.1c-2.8,1-6.3,1.4-10.1,1.4c-3.6,0-7.1-0.4-10.3-1
	c-3.2-0.8-6.1-1.8-8.7-3.4l1.6-10.9c2.4,1.6,5.3,2.8,8.5,3.6c3.2,0.8,6.3,1.2,8.9,1.2c3.6,0,6.5-0.8,8.1-2.2s2.4-3.4,2.4-5.5
	c0-2.1-0.8-3.4-2.2-4.7c-1.4-1-3.2-2-5.5-2.8c-2.2-0.8-4.7-1.6-7.1-2.4c-2.6-0.8-4.9-1.8-7.1-3.2s-4.1-3-5.5-5.3
	C515.1,709,514.3,706.1,514.3,702.5z"/>
<path fill="#ED2A26" d="M567.8,714.8V709h18.8v-19.7h5.7V709h19.5v5.9h-19.5v19.3h-5.7v-19.3H567.8z"/>
</svg>
