<?xml version="1.0" encoding="utf-8"?>
<!-- Generator: Adobe Illustrator 18.0.0, SVG Export Plug-In . SVG Version: 6.00 Build 0)  -->
<!DOCTYPE svg PUBLIC "-//W3C//DTD SVG 1.1//EN" "http://www.w3.org/Graphics/SVG/1.1/DTD/svg11.dtd">
<svg version="1.1" id="Layer_1" xmlns="http://www.w3.org/2000/svg" xmlns:xlink="http://www.w3.org/1999/xlink" x="0px" y="0px"
	 viewBox="0 0 146.6 168.8" enable-background="new 0 0 146.6 168.8" xml:space="preserve">
<path fill="#FFFFFF" d="M73.4,168.8c-3,0-5.9-1.6-5.9-4.9c0,0,0-21.3,0-21.5c0-6.9-10.9-6.9-10.9,0v9.7c0,7.3-11.6,7.3-11.6,0v-27.8
	c0-6.7-10.9-6.9-10.9,0v16c0,7.3-11.6,7.3-11.6,0v-24.7c0-6.9-10.9-6.9-10.9,0v7.7c0,7.1-11.6,7.5-11.6,0c0,0,0-77,0-77.2
	c0-6.9,11.6-7.3,11.6,0v37.5c0,6.9,10.9,6.9,10.9,0c0,0,0-54.5,0-54.7c0-7.1,11.6-7.3,11.6,0c0,0,0,15,0,15.2c0,6.9,10.9,6.9,10.9,0
	v-27c0-7.1,11.6-7.3,11.6,0v10.7c0,6.9,10.9,6.9,10.9,0V5.3c0-7.1,11.6-7.1,11.6,0v22.5c0,6.7,10.9,6.9,10.9,0V17.1
	c0-7.3,11.6-7.3,11.6,0c0,0,0,28.8,0,29c0,6.9,10.9,6.9,10.9,0V28.9c0-7.1,11.6-7.3,11.6,0c0,0,0,25.7,0,25.9c0,6.9,10.9,6.9,10.9,0
	v-8.7c0-7.3,11.6-7.3,11.6,0v77.2c0,7.1-11.6,7.1-11.6,0c0,0,0-35.3,0-35.5c0-6.9-10.9-6.9-10.9,0v52.5c0,7.3-11.6,7.3-11.6,0v-14
	c0-6.9-10.9-6.9-10.9,0V152c0,7.1-11.6,7.3-11.6,0v-9.7c0-6.9-10.9-6.9-10.9,0c0,0,0,21.3,0,21.5C79,167.2,76.2,168.8,73.4,168.8z"
	/>
<path fill="#333333" d="M64.9,52.9l37.7,21.7c6.5,3.6,6.5,13,0,16.6l-37.7,21.9c-6.5,3.6-14.4-1-14.4-8.3V61.2
	C50.5,53.9,58.4,49.3,64.9,52.9z"/>
</svg>
